<mxfile host="app.diagrams.net" modified="2023-05-05T13:43:37.181Z" agent="Mozilla/5.0 (Windows NT 10.0; Win64; x64) AppleWebKit/537.36 (KHTML, like Gecko) Chrome/112.0.0.0 Safari/537.36" etag="AV0WPVFu0nlzfOFpg3lS" version="21.2.9" type="github">
  <diagram name="페이지-1" id="Q-Ahfej42MZ3rOy340RX">
    <mxGraphModel dx="1750" dy="2084" grid="1" gridSize="10" guides="1" tooltips="1" connect="1" arrows="1" fold="1" page="1" pageScale="1" pageWidth="827" pageHeight="1169" math="0" shadow="0">
      <root>
        <mxCell id="0" />
        <mxCell id="1" parent="0" />
        <mxCell id="8K4BQDdlseJRUtGHZjL6-5" value="User&lt;br&gt;&lt;br&gt;- userId : String&lt;br&gt;- password : String&lt;br&gt;- birth : Date&lt;br&gt;- email : String&lt;br&gt;- phoneNum : String&lt;br&gt;- roles : List&amp;lt;String&amp;gt;&lt;br&gt;- name : String&lt;br&gt;- nickname : String&lt;br&gt;- replies : List&amp;lt;String&amp;gt;&lt;br&gt;- likes : List&amp;lt;Favorite&amp;gt;&lt;br&gt;&lt;br&gt;+ getUserId() : String&lt;br&gt;+ getPassword() : String&lt;br&gt;+ getBirth() : Date&lt;br&gt;+ getName() : String&lt;br&gt;+ getPhoneNum() : String&lt;br&gt;+ getEmail() : String&lt;br&gt;+ getNickname() : String&lt;br&gt;+ getReplies() : List&lt;br&gt;+ getLikes() : List&lt;br&gt;&lt;br&gt;+ setUserId() : String&lt;br style=&quot;border-color: var(--border-color);&quot;&gt;+ setPassword() : String&lt;br style=&quot;border-color: var(--border-color);&quot;&gt;+ setBirth() : Date&lt;br style=&quot;border-color: var(--border-color);&quot;&gt;+ setName() : String&lt;br style=&quot;border-color: var(--border-color);&quot;&gt;+ setPhoneNum() : String&lt;br style=&quot;border-color: var(--border-color);&quot;&gt;+ setEmail() : String&lt;br style=&quot;border-color: var(--border-color);&quot;&gt;+ setNickname() : String&lt;br style=&quot;border-color: var(--border-color);&quot;&gt;+ setReplies() : List&lt;br style=&quot;border-color: var(--border-color);&quot;&gt;+ setLikes() : List&lt;br&gt;&lt;br&gt;+ findIdByPhoneNum(FindIPhoneDto findIdPhoneDto) : User&lt;br&gt;+ findIdByEmail(FindIdEmailDto findIdEmailDto) : User&lt;br&gt;+ sendEmail(FindPasswordDto findPasswordDto) : MailDto&lt;br&gt;+getTempPassword() : String&lt;br&gt;+ mailSend(MailDto mailDto) : void&lt;br&gt;+ updatePassword(Long memberId, String password) : void&lt;br&gt;+ signUp(SignUpRequestDto signUpRequestDto) : SignUpRequestDto&lt;br&gt;+ signIn(SignInRequestDto signInRequestDto) throws RuntimeException&lt;br&gt;+ idCheck(String Uid) : boolean" style="rounded=0;whiteSpace=wrap;html=1;" parent="1" vertex="1">
          <mxGeometry x="20" y="-100" width="420" height="710" as="geometry" />
        </mxCell>
        <mxCell id="zPPBQXbyJSmpiGC-4HeZ-21" style="edgeStyle=orthogonalEdgeStyle;rounded=0;orthogonalLoop=1;jettySize=auto;html=1;entryX=1.008;entryY=0.921;entryDx=0;entryDy=0;entryPerimeter=0;" edge="1" parent="1" source="8K4BQDdlseJRUtGHZjL6-6" target="zPPBQXbyJSmpiGC-4HeZ-6">
          <mxGeometry relative="1" as="geometry">
            <Array as="points">
              <mxPoint x="420" y="-200" />
              <mxPoint x="420" y="-347" />
            </Array>
          </mxGeometry>
        </mxCell>
        <mxCell id="8K4BQDdlseJRUtGHZjL6-6" value="UserDetail&lt;br&gt;- mbti : String&lt;br&gt;- wish_roomate : String&amp;nbsp;&lt;br&gt;- monthly_fee : int&lt;br&gt;- regions : String&lt;br&gt;- lease_fee : int&lt;br&gt;- life_cycle : String&lt;br&gt;- smoking : String&lt;br&gt;- gender : String&lt;br&gt;- pet : String&lt;br&gt;&lt;br&gt;+getMbti() : String&lt;br&gt;+getWish_roomate() : String&lt;br&gt;+getMonthly_fee() : int&lt;br&gt;+getRegions() : String&lt;br&gt;+getLease_fee : int&lt;br&gt;+getLife_Cycle() : String&lt;br&gt;+getSmoking() : String&lt;br&gt;+getGender() : String&lt;br&gt;+getPet() : String&lt;br&gt;&lt;br&gt;+setMbti() : String&lt;br style=&quot;border-color: var(--border-color);&quot;&gt;+setWish_roomate() : String&lt;br style=&quot;border-color: var(--border-color);&quot;&gt;+setMonthly_fee() : int&lt;br style=&quot;border-color: var(--border-color);&quot;&gt;+setRegions() : String&lt;br style=&quot;border-color: var(--border-color);&quot;&gt;+setLease_fee : int&lt;br style=&quot;border-color: var(--border-color);&quot;&gt;+setLife_Cycle() : String&lt;br style=&quot;border-color: var(--border-color);&quot;&gt;+setSmoking() : String&lt;br style=&quot;border-color: var(--border-color);&quot;&gt;+setGender() : String&lt;br style=&quot;border-color: var(--border-color);&quot;&gt;+setPet() : String&lt;br&gt;&lt;br&gt;+matching(String userId) : List&amp;lt;User&amp;gt;&lt;br&gt;+saveIntro(String id, UserDetaillSaveDto userDetailSaveDto) : void&lt;br&gt;+editIntro(Long id, UserDetailUpdateDto userDetailUpdateDto) : void&lt;br&gt;" style="rounded=0;whiteSpace=wrap;html=1;" parent="1" vertex="1">
          <mxGeometry x="480" y="-350" width="370" height="590" as="geometry" />
        </mxCell>
        <mxCell id="zPPBQXbyJSmpiGC-4HeZ-1" value="RoomPicture&lt;br&gt;- filename&lt;br&gt;- filepath&lt;br&gt;&lt;br&gt;+getFIlename()&lt;br&gt;+getFilepath()&lt;br&gt;&lt;br&gt;+setFilename()&lt;br&gt;+setFilepath()&lt;br&gt;&lt;br&gt;+photo_save(Long post_id, MultipartFile file) throws Exception : Long&lt;br&gt;+ findPhoto(Long PostId) : RoomPicture" style="rounded=0;whiteSpace=wrap;html=1;" vertex="1" parent="1">
          <mxGeometry x="960" y="-480" width="470" height="250" as="geometry" />
        </mxCell>
        <mxCell id="zPPBQXbyJSmpiGC-4HeZ-2" value="Post&lt;br&gt;- title : String&lt;br&gt;-context : String&lt;br&gt;-publishDate : Date&lt;br&gt;-deposit : int&lt;br&gt;-monthly :int&lt;br&gt;-management_fee : int&lt;br&gt;-RoomPay_type : String&lt;br&gt;-area : String&lt;br&gt;&lt;br&gt;+getTitle() : String&lt;br&gt;+getContext() : String&lt;br&gt;+getPublishDate() : String&lt;br&gt;+getDeposit() : String&lt;br&gt;+getMonthly() : int&lt;br&gt;+getManagement_fee() :int&lt;br&gt;+getRoomPay_type() : String&lt;br&gt;+getArea() : String&lt;br&gt;&lt;br&gt;+ RecentlyPost() : List&amp;lt;RecentlyPostDto&amp;gt;&lt;br&gt;+ post_save(PostUpRequestDto postUpRequestDto, MultipartFile file, String uid) throws Exception:PostUpResultDto&lt;br&gt;+MonthlyPostwrite(MonthlyPostRequestDto dto, MultipartFile file, String uid) throws Exception : PostUpResultDto&lt;br&gt;+LeasePostWrite(LEasePostRequestDto dto, MultipartFile file, String uid) throws Exception : PostUpResultDto&lt;br&gt;+SearchPostUsing_Category(String areaName, pageable pageable) :Page&amp;lt;Post&amp;gt;&lt;br&gt;+SearchPost(String keyword, pageable pageable) : Page&amp;lt;Post&amp;gt;&lt;br&gt;+Post_edit(Long post_id, String uid, PostEditRequestDto postEditRequestDto): PostUpResultDto&lt;br&gt;+post_delete(Long postId, String uid): PostDeleteResultDto&lt;br&gt;+detail_post(Post post, RoomPicture photo) : DetailPostDto&lt;br&gt;+post_postList(Pageable pageable) : Page&amp;lt;Post&amp;gt;&lt;br&gt;+findPost(Long postId) : Post" style="rounded=0;whiteSpace=wrap;html=1;" vertex="1" parent="1">
          <mxGeometry x="960" y="-110" width="330" height="550" as="geometry" />
        </mxCell>
        <mxCell id="zPPBQXbyJSmpiGC-4HeZ-3" value="LifeCycle&lt;br&gt;- lifeCycle_value : String&lt;br&gt;&amp;nbsp;+getLIfeCycle_value() : String&lt;br&gt;+serLifeCycle_value() : String" style="rounded=0;whiteSpace=wrap;html=1;" vertex="1" parent="1">
          <mxGeometry x="510" y="310" width="270" height="210" as="geometry" />
        </mxCell>
        <mxCell id="zPPBQXbyJSmpiGC-4HeZ-4" value="Favorite&lt;br&gt;- MyFavorite : Boolean&lt;br&gt;&lt;br&gt;+getFavorite() : Boolean&lt;br&gt;+setFavorite() : Boolean&lt;br&gt;&lt;br&gt;+checkFavorite(Long postId, Long userId) : boolean&lt;br&gt;+saveLike(Long userId, Long postId) : boolean" style="rounded=0;whiteSpace=wrap;html=1;" vertex="1" parent="1">
          <mxGeometry x="670" y="620" width="320" height="190" as="geometry" />
        </mxCell>
        <mxCell id="zPPBQXbyJSmpiGC-4HeZ-6" value="Mbti&lt;br&gt;- mbti : String&lt;br&gt;- firstMbti : String&lt;br&gt;- secondMbti : String&lt;br&gt;- thirdMbti : String&lt;br&gt;-fourthMbti : String&lt;br&gt;&lt;br&gt;+getMbti() : String&lt;br&gt;+getFirstMbti() : String&lt;br&gt;+getSecondMbti() : String&lt;br&gt;+getThirdMbti() : String&lt;br&gt;+getFourthMbti() : String" style="rounded=0;whiteSpace=wrap;html=1;" vertex="1" parent="1">
          <mxGeometry x="100" y="-550" width="260" height="220" as="geometry" />
        </mxCell>
        <mxCell id="zPPBQXbyJSmpiGC-4HeZ-7" value="Reply&lt;br&gt;- comment : String&lt;br&gt;- publishedDate : Date&lt;br&gt;&lt;br&gt;+getComment() : String&lt;br&gt;+getPublishedDate() : Date&lt;br&gt;&lt;br&gt;+setComment() : String&lt;br&gt;+setPublishedDate() : Date&lt;br&gt;&lt;br&gt;+ findReply(Long postId) : List&amp;lt;Reply&amp;gt;&lt;br&gt;+Reply_wirte(ReplyRequestDto dto) : ReplyRequestDto&lt;br&gt;+reply_Delete(Long postId, Long userId, Long ReplyId) : ReplyDeleteRequestDto&lt;br&gt;" style="rounded=0;whiteSpace=wrap;html=1;" vertex="1" parent="1">
          <mxGeometry x="1370" y="-60" width="290" height="260" as="geometry" />
        </mxCell>
        <mxCell id="zPPBQXbyJSmpiGC-4HeZ-8" value="Category&lt;br&gt;- area : String&lt;br&gt;&lt;br&gt;+getArea() : String&lt;br&gt;+setArea() : String" style="rounded=0;whiteSpace=wrap;html=1;" vertex="1" parent="1">
          <mxGeometry x="1120" y="550" width="250" height="260" as="geometry" />
        </mxCell>
        <mxCell id="zPPBQXbyJSmpiGC-4HeZ-13" value="" style="endArrow=classic;html=1;rounded=0;entryX=0;entryY=0.25;entryDx=0;entryDy=0;exitX=0.998;exitY=0.904;exitDx=0;exitDy=0;exitPerimeter=0;" edge="1" parent="1" source="8K4BQDdlseJRUtGHZjL6-5" target="zPPBQXbyJSmpiGC-4HeZ-4">
          <mxGeometry width="50" height="50" relative="1" as="geometry">
            <mxPoint x="580" y="310" as="sourcePoint" />
            <mxPoint x="630" y="260" as="targetPoint" />
          </mxGeometry>
        </mxCell>
        <mxCell id="zPPBQXbyJSmpiGC-4HeZ-14" value="" style="endArrow=classic;html=1;rounded=0;" edge="1" parent="1" source="zPPBQXbyJSmpiGC-4HeZ-2" target="zPPBQXbyJSmpiGC-4HeZ-4">
          <mxGeometry width="50" height="50" relative="1" as="geometry">
            <mxPoint x="820" y="490" as="sourcePoint" />
            <mxPoint x="630" y="260" as="targetPoint" />
          </mxGeometry>
        </mxCell>
        <mxCell id="zPPBQXbyJSmpiGC-4HeZ-15" value="" style="endArrow=classic;html=1;rounded=0;exitX=0.362;exitY=1.008;exitDx=0;exitDy=0;exitPerimeter=0;entryX=0.75;entryY=0;entryDx=0;entryDy=0;" edge="1" parent="1" source="8K4BQDdlseJRUtGHZjL6-6" target="zPPBQXbyJSmpiGC-4HeZ-3">
          <mxGeometry width="50" height="50" relative="1" as="geometry">
            <mxPoint x="690" y="410" as="sourcePoint" />
            <mxPoint x="740" y="360" as="targetPoint" />
          </mxGeometry>
        </mxCell>
        <mxCell id="zPPBQXbyJSmpiGC-4HeZ-16" value="" style="endArrow=classic;html=1;rounded=0;exitX=0.909;exitY=1;exitDx=0;exitDy=0;exitPerimeter=0;entryX=0.184;entryY=0.005;entryDx=0;entryDy=0;entryPerimeter=0;" edge="1" parent="1" source="zPPBQXbyJSmpiGC-4HeZ-2" target="zPPBQXbyJSmpiGC-4HeZ-8">
          <mxGeometry width="50" height="50" relative="1" as="geometry">
            <mxPoint x="690" y="540" as="sourcePoint" />
            <mxPoint x="740" y="490" as="targetPoint" />
          </mxGeometry>
        </mxCell>
        <mxCell id="zPPBQXbyJSmpiGC-4HeZ-18" value="" style="endArrow=classic;html=1;rounded=0;exitX=0.317;exitY=-0.005;exitDx=0;exitDy=0;exitPerimeter=0;entryX=0.549;entryY=1;entryDx=0;entryDy=0;entryPerimeter=0;" edge="1" parent="1" source="zPPBQXbyJSmpiGC-4HeZ-2" target="zPPBQXbyJSmpiGC-4HeZ-1">
          <mxGeometry width="50" height="50" relative="1" as="geometry">
            <mxPoint x="780" y="60" as="sourcePoint" />
            <mxPoint x="830" y="10" as="targetPoint" />
          </mxGeometry>
        </mxCell>
        <mxCell id="zPPBQXbyJSmpiGC-4HeZ-19" value="" style="endArrow=classic;html=1;rounded=0;exitX=1.004;exitY=0.463;exitDx=0;exitDy=0;exitPerimeter=0;entryX=-0.009;entryY=0.428;entryDx=0;entryDy=0;entryPerimeter=0;" edge="1" parent="1" source="zPPBQXbyJSmpiGC-4HeZ-2" target="zPPBQXbyJSmpiGC-4HeZ-7">
          <mxGeometry width="50" height="50" relative="1" as="geometry">
            <mxPoint x="780" y="60" as="sourcePoint" />
            <mxPoint x="1290" y="50" as="targetPoint" />
          </mxGeometry>
        </mxCell>
        <mxCell id="zPPBQXbyJSmpiGC-4HeZ-20" value="" style="endArrow=classic;startArrow=classic;html=1;rounded=0;exitX=1.001;exitY=0.279;exitDx=0;exitDy=0;exitPerimeter=0;entryX=0.007;entryY=0.682;entryDx=0;entryDy=0;entryPerimeter=0;" edge="1" parent="1" source="8K4BQDdlseJRUtGHZjL6-5" target="8K4BQDdlseJRUtGHZjL6-6">
          <mxGeometry width="50" height="50" relative="1" as="geometry">
            <mxPoint x="620" y="280" as="sourcePoint" />
            <mxPoint x="670" y="230" as="targetPoint" />
          </mxGeometry>
        </mxCell>
      </root>
    </mxGraphModel>
  </diagram>
</mxfile>
